<svg width="440" height="372" viewBox="0 0 440 372" fill="none" xmlns="http://www.w3.org/2000/svg">
<path d="M23.2923 206.761L407.037 206.761C407.037 206.761 429.967 206.761 429.967 186.236C429.967 165.712 407.037 165.712 407.037 165.712L23.2923 165.712C23.2923 165.712 0.15625 165.712 0.15625 186.236C0.15625 206.761 23.2923 206.761 23.2923 206.761Z" fill="#F9AB00"/>
<path d="M422.671 169.016L270.528 16.8736C270.528 16.8736 254.314 0.65937 239.8 15.1725C225.287 29.6857 241.501 45.8999 241.501 45.8999L393.644 198.042C393.644 198.042 410.004 214.402 424.517 199.889C439.03 185.376 422.671 169.016 422.671 169.016Z" fill="#F9AB00"/>
<path d="M270.674 355.64L422.817 203.497C422.817 203.497 439.031 187.283 424.518 172.77C410.005 158.257 393.79 174.471 393.79 174.471L241.648 326.614C241.648 326.614 225.288 342.974 239.801 357.487C254.314 372 270.674 355.64 270.674 355.64Z" fill="#F9AB00"/>
</svg>
