<svg width="506" height="506" viewBox="0 0 506 506" fill="none" xmlns="http://www.w3.org/2000/svg">
<path d="M228.66 27.204V478.421C228.66 478.421 228.66 505.383 252.794 505.383C276.927 505.383 276.927 478.421 276.927 478.421V27.204C276.927 27.204 276.927 0 252.794 0C228.66 0 228.66 27.204 228.66 27.204Z" fill="#EA4335"/>
<path d="M429.303 395.07L110.244 76.0117C110.244 76.0117 91.1794 56.9466 74.1144 74.0116C57.0495 91.0765 76.1146 110.142 76.1146 110.142L395.173 429.2C395.173 429.2 414.409 448.436 431.474 431.371C448.539 414.306 429.303 395.07 429.303 395.07Z" fill="#EA4335"/>
<path d="M109.942 431.566L429.001 112.508C429.001 112.508 448.066 93.4424 431.001 76.3775C413.936 59.3126 394.871 78.3776 394.871 78.3776L75.8123 397.436C75.8123 397.436 56.5762 416.672 73.6411 433.737C90.7061 450.802 109.942 431.566 109.942 431.566Z" fill="#EA4335"/>
<path d="M478.281 228.558L27.0645 228.558C27.0645 228.558 0.102401 228.558 0.102401 252.692C0.102401 276.825 27.0645 276.825 27.0645 276.825L478.281 276.825C478.281 276.825 505.485 276.825 505.485 252.692C505.485 228.558 478.281 228.558 478.281 228.558Z" fill="#EA4335"/>
</svg>
